<svg xmlns="http://www.w3.org/2000/svg" viewBox="0 0 200 220" width="200" height="220">
  <!-- Shield shape -->
  <path d="M100 10 L185 50 L185 130 Q185 180 100 210 Q15 180 15 130 L15 50 Z"
        fill="#1B3A5C" stroke="#2563EB" stroke-width="3"/>
  <!-- Inner shield highlight -->
  <path d="M100 25 L170 58 L170 128 Q170 170 100 195 Q30 170 30 128 L30 58 Z"
        fill="#1E4A7A" opacity="0.6"/>
  <!-- Brain/AI icon -->
  <circle cx="100" cy="90" r="30" fill="none" stroke="#60A5FA" stroke-width="2.5"/>
  <path d="M85 80 Q90 70 100 70 Q110 70 115 80" fill="none" stroke="#60A5FA" stroke-width="2"/>
  <path d="M85 95 Q90 105 100 105 Q110 105 115 95" fill="none" stroke="#60A5FA" stroke-width="2"/>
  <line x1="100" y1="70" x2="100" y2="105" stroke="#60A5FA" stroke-width="2"/>
  <line x1="85" y1="88" x2="115" y2="88" stroke="#60A5FA" stroke-width="2"/>
  <!-- Connection nodes -->
  <circle cx="75" cy="75" r="3" fill="#93C5FD"/>
  <circle cx="125" cy="75" r="3" fill="#93C5FD"/>
  <circle cx="75" cy="100" r="3" fill="#93C5FD"/>
  <circle cx="125" cy="100" r="3" fill="#93C5FD"/>
  <line x1="75" y1="75" x2="85" y2="80" stroke="#93C5FD" stroke-width="1.5"/>
  <line x1="125" y1="75" x2="115" y2="80" stroke="#93C5FD" stroke-width="1.5"/>
  <line x1="75" y1="100" x2="85" y2="95" stroke="#93C5FD" stroke-width="1.5"/>
  <line x1="125" y1="100" x2="115" y2="95" stroke="#93C5FD" stroke-width="1.5"/>
  <!-- Chart bars -->
  <rect x="65" y="135" width="10" height="25" rx="2" fill="#3B82F6" opacity="0.8"/>
  <rect x="80" y="128" width="10" height="32" rx="2" fill="#2563EB" opacity="0.9"/>
  <rect x="95" y="120" width="10" height="40" rx="2" fill="#1D4ED8"/>
  <rect x="110" y="130" width="10" height="30" rx="2" fill="#2563EB" opacity="0.9"/>
  <rect x="125" y="138" width="10" height="22" rx="2" fill="#3B82F6" opacity="0.8"/>
  <!-- Text label -->
  <text x="100" y="183" text-anchor="middle" font-family="Arial, sans-serif"
        font-size="11" font-weight="bold" fill="#93C5FD" letter-spacing="2">
    UNASAM
  </text>
</svg>
